<svg width="60" height="60" viewBox="0 0 60 60" fill="none" xmlns="http://www.w3.org/2000/svg">
<path fill-rule="evenodd" clip-rule="evenodd" d="M43.5948 9.93877C41.093 6.32125 34.6403 3.19057 30.6056 4.15981C28.1135 4.75849 28.5373 7.25881 27.5936 7.52737C26.6499 7.79593 21.7293 9.58249 21.2711 12.4344C20.8128 15.2863 22.8045 15.5415 22.7397 16.5264C22.6749 17.5114 19.4858 20.8824 20.7656 23.3085C22.0454 25.7345 23.6891 25.741 23.7837 26.7823C23.8784 27.8237 25.3393 36.8464 28.3489 39.685C31.3585 42.5236 38.0408 52.9356 39.8319 51.1381C41.6231 49.3406 41.3186 49.4821 42.6602 48.6648C43.5885 48.0994 45.7545 47.6208 46.8629 44.7829C47.9199 42.076 45.5942 38.0662 45.7932 36.358C45.8807 35.6059 48.5199 34.7427 47.8511 31.3953C47.1822 28.0479 44.5801 24.8442 44.6231 22.9624C44.6441 22.0299 46.2396 22.045 46.707 19.4207C47.0732 17.3641 45.4442 12.6131 43.595 9.93901L43.5948 9.93877Z" fill="#5C00BA"/>
<path fill-rule="evenodd" clip-rule="evenodd" d="M18.4912 36.4721C17.5095 34.5746 16.7362 32.5909 16.8213 30.3761C17.8938 30.1633 18.7278 29.4401 19.0053 27.5921C18.9178 28.1748 20.1178 28.4868 20.6343 28.286C21.7296 27.8597 22.5753 26.006 22.1527 25.453C22.5264 24.8807 23.0214 23.8148 22.3965 23.2777C22.3965 23.2777 22.9318 21.618 22.1805 21.2617C21.4927 20.9358 20.143 20.9842 20.143 20.9842C20.7712 20.3135 21.282 19.8304 21.8599 19.2268C22.2713 19.3259 23.1007 19.4556 23.4199 19.4315C25.0089 19.3115 25.2049 17.5906 24.474 17.5039C21.8387 17.1928 21.3699 16.8211 20.817 17.1553C20.3928 17.4115 17.169 20.5132 16.857 20.9861C15.4019 23.185 12.7002 27.1841 12.2064 29.1481C11.4596 32.1184 13.2372 47.2763 17.3944 47.2125C20.0727 47.1714 22.225 43.6485 22.9157 41.7996C22.2403 39.3105 20.5145 35.903 18.4914 36.4716L18.4912 36.4721Z" fill="#FFA775"/>
<path d="M19.0549 27.5924C19.0447 27.5924 19.0346 27.5911 19.0248 27.5885C18.995 27.5804 18.9696 27.561 18.9541 27.5342C18.9388 27.5076 18.9346 27.4758 18.9425 27.446C19.0528 27.0241 19.1255 26.5931 19.1596 26.1583C19.1614 26.1373 19.1688 26.1173 19.1812 26.1001C19.1935 26.0831 19.2103 26.0696 19.2296 26.0614C19.249 26.0531 19.2703 26.0502 19.2912 26.053C19.3121 26.0558 19.3318 26.0642 19.3482 26.0774C19.6393 26.3174 19.9687 26.5068 20.3227 26.6375C20.3518 26.6478 20.3756 26.6692 20.389 26.697C20.4022 26.7248 20.404 26.7569 20.3936 26.7859C20.3833 26.815 20.362 26.8388 20.3341 26.8522C20.3063 26.8655 20.2742 26.8672 20.2452 26.8568C19.9328 26.7432 19.6384 26.5852 19.3711 26.3875C19.332 26.765 19.2638 27.139 19.1671 27.506C19.1605 27.5308 19.1459 27.5526 19.1256 27.5682C19.1053 27.5838 19.0805 27.5923 19.0549 27.5924Z" fill="#29263B"/>
<path fill-rule="evenodd" clip-rule="evenodd" d="M27.7822 27.264C26.6602 26.7563 24.9556 25.5762 23.2243 26.5193C20.7941 27.8428 18.4303 36.4693 18.4303 36.4693C19.5004 36.3218 20.3682 38.0173 21.1235 39.2713C22.5755 45.8095 22.5733 51.2914 22.4617 56.694C28.012 59.5285 36.407 59.4754 41.0888 56.6922C41.0888 56.6922 41.0274 50.3358 41.4104 48.344C41.7692 46.4784 44.992 44.012 44.992 44.012C44.992 44.012 48.3314 32.3506 45.472 28.9444C43.737 26.8778 41.1511 26.9988 37.996 28.1857C33.7217 29.793 29.3886 27.9911 27.783 27.2645L27.7822 27.264Z" fill="#FFC764"/>
<path fill-rule="evenodd" clip-rule="evenodd" d="M27.0133 13.788C27.0133 13.788 24.4834 20.9346 25.7432 23.1386C27.0031 25.3427 30.5778 25.8643 30.5778 25.8643L30.2937 28.1323L27.7188 27.2413C26.9748 30.038 27.6656 33.2315 29.5001 35.9915C31.9235 34.1728 34.7665 31.6164 38.1202 28.1622C38.1202 28.1622 35.826 29.1379 35.3945 28.1838C34.963 27.2297 36.7234 23.3449 36.7234 23.3449C39.4642 25.164 41.6213 20.9789 38.1369 20.5201C38.7859 17.879 37.3513 17.6836 37.2862 16.3961C37.203 14.7452 38.7754 14.5996 38.7399 12.8276C35.9439 13.713 35.1621 10.5787 32.4534 11.4836C30.1834 12.2424 30.3044 14.0545 27.0133 13.7876V13.788Z" fill="#FFA775"/>
<path fill-rule="evenodd" clip-rule="evenodd" d="M34.0146 25.5043C33.3847 25.8643 31.5756 26.0272 30.5778 25.8643L30.4098 27.2021C32.0888 27.2819 33.2418 26.5666 34.0146 25.5043Z" fill="#F08855"/>
<path fill-rule="evenodd" clip-rule="evenodd" d="M37.9471 42.426L37.0902 45.3583C37.0902 45.3583 25.7327 45.3868 24.8708 45.4888C22.2614 45.7981 18.9995 47.7047 18.3239 48.2142C17.4839 48.8475 17.3459 50.3827 18.8219 50.7328C19.451 52.4075 20.3883 54.7271 21.2519 54.9423C22.4528 55.2423 22.6884 54.1855 22.7052 53.4303C23.4678 54.1668 26.4626 53.9736 27.0507 51.9445C28.8715 52.2065 39.8433 52.4045 41.2737 51.3646C42.7041 50.3247 44.9533 43.9672 44.9533 43.9672C43.205 42.4927 40.6259 42.0535 37.9471 42.4263V42.426Z" fill="#FFA775"/>
<path d="M38.04 46.5537C38.0231 46.5537 38.0063 46.5501 37.9909 46.5429C37.9756 46.5358 37.962 46.5255 37.9511 46.5125L36.9041 45.2728C36.8942 45.2611 36.8868 45.2476 36.8821 45.2331C36.8774 45.2185 36.8758 45.2032 36.8771 45.1879C36.8784 45.1728 36.8826 45.1579 36.8897 45.1444C36.8966 45.1308 36.9062 45.1188 36.9179 45.1089C36.9296 45.099 36.9431 45.0916 36.9576 45.087C36.9722 45.0823 36.9875 45.0807 37.0027 45.0819C37.018 45.0832 37.0327 45.0875 37.0463 45.0945C37.0598 45.1015 37.072 45.1111 37.0818 45.1228L38.1288 46.3625C38.1431 46.3794 38.1523 46.4001 38.1552 46.422C38.1582 46.444 38.1547 46.4663 38.1455 46.4865C38.1361 46.5065 38.1212 46.5235 38.1025 46.5354C38.0838 46.5473 38.0622 46.5537 38.04 46.5537Z" fill="#29263B"/>
<path d="M22.1801 25.57C22.1494 25.57 22.12 25.5578 22.0982 25.5361C21.3787 24.8315 20.522 24.2822 19.5815 23.9222C19.5528 23.9107 19.53 23.8882 19.5179 23.8597C19.5058 23.8313 19.5055 23.7992 19.5172 23.7707C19.5287 23.742 19.5511 23.7191 19.5796 23.7071C19.608 23.695 19.64 23.6947 19.6687 23.7062C20.6381 24.0775 21.5207 24.644 22.262 25.3706C22.2784 25.3868 22.2895 25.4076 22.2941 25.4302C22.2986 25.4528 22.2964 25.4762 22.2876 25.4975C22.2788 25.5188 22.264 25.5371 22.2448 25.5499C22.2257 25.5628 22.2031 25.5696 22.1801 25.5696V25.57Z" fill="#29263B"/>
<path d="M22.425 23.3838C22.4093 23.3838 22.3937 23.3806 22.3793 23.3744C21.3572 22.9339 20.2729 22.6554 19.1651 22.5487C19.1498 22.5472 19.1352 22.5426 19.1218 22.5353C19.1083 22.5281 19.0964 22.5182 19.0868 22.5064C19.0771 22.4945 19.0699 22.4809 19.0656 22.4663C19.0613 22.4516 19.0598 22.4363 19.0614 22.421C19.063 22.4058 19.0675 22.3912 19.0748 22.3777C19.082 22.3643 19.0919 22.3524 19.1038 22.3428C19.1156 22.3331 19.1293 22.3259 19.144 22.3216C19.1585 22.3172 19.1738 22.3158 19.1891 22.3174C20.3203 22.4263 21.4276 22.7107 22.4712 23.1606C22.4958 23.1712 22.5161 23.1899 22.5286 23.2136C22.5409 23.2374 22.5448 23.2646 22.5394 23.2909C22.534 23.3172 22.5197 23.3407 22.4989 23.3576C22.4782 23.3746 22.4521 23.3838 22.4254 23.3838H22.425Z" fill="#29263B"/>
<path d="M18.7278 21.0909C18.6976 21.09 18.6689 21.0773 18.6479 21.0555C18.6269 21.0338 18.6151 21.0048 18.6151 20.9745C18.6151 20.9444 18.6269 20.9154 18.6479 20.8937C18.6689 20.8719 18.6976 20.8592 18.7278 20.8583L20.1592 20.8524C20.19 20.8523 20.2196 20.8644 20.2415 20.8861C20.2634 20.9078 20.2758 20.9373 20.2759 20.9682C20.276 20.999 20.2639 21.0287 20.2422 21.0505C20.2205 21.0725 20.191 21.0848 20.1601 21.0849L18.7286 21.0909H18.7278Z" fill="#29263B"/>
<path d="M21.0872 39.3035C21.0599 39.3035 21.0335 39.2938 21.0126 39.2762C20.9916 39.2587 20.9776 39.2344 20.9728 39.2075C20.6639 37.4297 23.3956 32.7317 23.5121 32.5326C23.5196 32.5193 23.5298 32.5075 23.5421 32.4982C23.5542 32.4888 23.5681 32.4818 23.583 32.4779C23.5979 32.4739 23.6134 32.473 23.6286 32.475C23.6438 32.477 23.6585 32.4821 23.6718 32.4899C23.685 32.4976 23.6966 32.5079 23.7059 32.5201C23.7151 32.5325 23.722 32.5464 23.7257 32.5613C23.7295 32.5762 23.7304 32.5918 23.7282 32.6069C23.7259 32.6221 23.7208 32.6368 23.7128 32.65C23.6848 32.698 20.9075 37.4731 21.202 39.1676C21.2072 39.198 21.2002 39.2292 21.1824 39.2545C21.1646 39.2797 21.1376 39.2969 21.1073 39.3022C21.1007 39.3031 21.094 39.3036 21.0872 39.3035Z" fill="#29263B"/>
<path d="M37.3374 42.6349C37.3194 42.6349 37.3016 42.6308 37.2856 42.6228C37.2695 42.6149 37.2554 42.6032 37.2445 42.5888C37.2337 42.5746 37.2263 42.5579 37.223 42.5401C37.2197 42.5225 37.2205 42.5042 37.2254 42.487C37.8854 40.1681 38.2639 38.1976 38.3846 36.463C38.3855 36.4476 38.3893 36.4326 38.396 36.4188C38.4028 36.405 38.4121 36.3926 38.4238 36.3826C38.4353 36.3725 38.4488 36.3649 38.4634 36.3601C38.478 36.3553 38.4935 36.3536 38.5087 36.355C38.524 36.356 38.5388 36.36 38.5525 36.3668C38.5662 36.3737 38.5784 36.3832 38.5884 36.3947C38.5985 36.4062 38.6062 36.4195 38.611 36.434C38.6159 36.4486 38.6178 36.4638 38.6167 36.479C38.4979 38.1864 38.132 40.1172 37.4986 42.3762L37.9553 42.3055C37.9704 42.3031 37.9858 42.3038 38.0006 42.3074C38.0155 42.3109 38.0294 42.3175 38.0418 42.3265C38.0542 42.3355 38.0646 42.3468 38.0726 42.3599C38.0806 42.373 38.0858 42.3874 38.0882 42.4025C38.0906 42.4176 38.0899 42.433 38.0863 42.4478C38.0828 42.4627 38.0764 42.4766 38.0672 42.489C38.0582 42.5014 38.047 42.5118 38.0339 42.5198C38.0209 42.5278 38.0064 42.533 37.9913 42.5354L37.3553 42.6337C37.3494 42.6346 37.3434 42.635 37.3374 42.6349Z" fill="#29263B"/>
<path d="M29.0537 20.0814C29.0404 20.0814 29.0271 20.0791 29.0145 20.0747C28.9734 20.0599 28.0114 19.7078 28.0368 19.087C28.0601 18.5142 29.0266 16.9046 29.5569 16.4365C29.5683 16.4264 29.5816 16.4187 29.5961 16.4137C29.6105 16.4087 29.6259 16.4066 29.6411 16.4076C29.6563 16.4086 29.6712 16.4125 29.6849 16.4192C29.6987 16.426 29.7109 16.4353 29.721 16.4467C29.7311 16.4581 29.7389 16.4714 29.7438 16.486C29.7489 16.5004 29.7509 16.5157 29.7499 16.531C29.749 16.5462 29.745 16.5611 29.7383 16.5748C29.7316 16.5886 29.7222 16.6008 29.7108 16.6109C29.232 17.0335 28.2899 18.5909 28.2691 19.0964C28.2539 19.4705 28.8587 19.7713 29.0929 19.8557C29.1187 19.8649 29.1403 19.8829 29.1541 19.9067C29.1679 19.9303 29.1729 19.9581 29.1682 19.9851C29.1635 20.0121 29.1495 20.0365 29.1285 20.0541C29.1076 20.0717 29.0811 20.0814 29.0537 20.0814Z" fill="#29263B"/>
<path d="M31.248 22.2821C31.2262 22.2821 31.2048 22.276 31.1863 22.2643C31.1677 22.2528 31.1528 22.2362 31.1434 22.2166C31.0741 22.0554 30.9737 21.9096 30.8478 21.7874C30.722 21.6653 30.5732 21.5692 30.4102 21.5047C30.3083 21.4679 30.1999 21.4519 30.0918 21.4576C29.9836 21.4631 29.8775 21.4903 29.7799 21.5375C29.7523 21.5513 29.7204 21.5536 29.6911 21.5438C29.6618 21.5341 29.6377 21.5131 29.6239 21.4855C29.61 21.458 29.6077 21.4261 29.6174 21.3968C29.6273 21.3676 29.6482 21.3433 29.6758 21.3295C29.8008 21.2686 29.9369 21.2332 30.0758 21.2254C30.2148 21.2177 30.3539 21.2377 30.4849 21.2845C30.6773 21.3587 30.853 21.4703 31.0019 21.6128C31.1509 21.7553 31.2701 21.926 31.3525 22.1149C31.3612 22.1327 31.3651 22.1522 31.364 22.1719C31.363 22.1916 31.357 22.2107 31.3465 22.2274C31.3361 22.244 31.3216 22.2578 31.3043 22.2674C31.2871 22.277 31.2677 22.2821 31.248 22.2821Z" fill="#29263B"/>
<path d="M35.6969 15.822C35.636 15.822 35.577 15.8021 35.5285 15.7654C35.48 15.7286 35.4449 15.6772 35.4283 15.6186C35.2723 15.065 35.0393 14.6988 34.7365 14.5304C34.4698 14.3822 34.1291 14.371 33.6948 14.496C33.6241 14.515 33.5489 14.5054 33.4853 14.4695C33.4216 14.4335 33.3745 14.374 33.3542 14.3038C33.3341 14.2336 33.3421 14.1581 33.3769 14.0938C33.4116 14.0294 33.4703 13.9813 33.5401 13.9597C34.1161 13.7935 34.6101 13.8215 35.0077 14.0425C35.4517 14.2892 35.7647 14.7552 35.9657 15.467C35.9773 15.5086 35.9792 15.5522 35.9712 15.5946C35.9632 15.637 35.9455 15.6769 35.9195 15.7112C35.8934 15.7457 35.8597 15.7735 35.8212 15.7927C35.7826 15.8119 35.7399 15.822 35.6969 15.822Z" fill="#29263B"/>
<path d="M27.5977 15.0025C27.5478 15.0024 27.4987 14.989 27.4558 14.9635C27.4128 14.938 27.3775 14.9015 27.3534 14.8577C27.3294 14.8139 27.3175 14.7646 27.3191 14.7146C27.3206 14.6647 27.3355 14.6161 27.3623 14.5739C27.9632 13.6259 28.6663 13.728 29.1503 13.9804C29.2159 14.0146 29.2652 14.0735 29.2874 14.1442C29.3098 14.2147 29.3029 14.2913 29.2687 14.3569C29.2345 14.4226 29.1756 14.4719 29.1049 14.4941C29.0344 14.5163 28.9578 14.5096 28.8922 14.4754C28.5776 14.3112 28.2322 14.2457 27.834 14.8728C27.8088 14.9126 27.7739 14.9454 27.7326 14.9681C27.6912 14.9908 27.6449 15.0026 27.5977 15.0025Z" fill="#29263B"/>
<path fill-rule="evenodd" clip-rule="evenodd" d="M34.1828 15.5238C34.4582 15.5942 34.5676 16.0982 34.4269 16.6487C34.2863 17.1991 33.9481 17.5889 33.6731 17.5184C33.398 17.448 33.2884 16.9439 33.4291 16.3935C33.5699 15.8432 33.9076 15.4533 34.1828 15.5238Z" fill="#29263B"/>
<path fill-rule="evenodd" clip-rule="evenodd" d="M28.272 15.1262C28.5258 15.1757 28.6513 15.6277 28.5528 16.135C28.4543 16.6422 28.1677 17.0135 27.914 16.964C27.6604 16.9146 27.5347 16.4628 27.6332 15.956C27.7318 15.4493 28.0183 15.0772 28.272 15.1266V15.1262Z" fill="#29263B"/>
<path d="M37.6811 22.7807C37.6574 22.7807 37.6342 22.7744 37.6138 22.7626C37.5828 22.7447 37.5601 22.7153 37.5509 22.6807C37.5415 22.646 37.5463 22.6092 37.5642 22.5782C37.9374 21.9302 38.5294 21.6281 39.3239 21.6793C39.3418 21.6802 39.3594 21.6845 39.3756 21.6922C39.3918 21.6998 39.4063 21.7108 39.4183 21.7241C39.4303 21.7374 39.4394 21.7531 39.4453 21.77C39.4512 21.787 39.4536 21.805 39.4525 21.8228C39.4513 21.8407 39.4466 21.8582 39.4386 21.8743C39.4307 21.8904 39.4195 21.9047 39.406 21.9163C39.3924 21.9281 39.3766 21.937 39.3595 21.9426C39.3425 21.9481 39.3245 21.9502 39.3066 21.9487C38.613 21.9034 38.1202 22.1542 37.7981 22.713C37.7863 22.7336 37.7693 22.7507 37.7486 22.7626C37.7281 22.7744 37.7048 22.7807 37.6811 22.7807Z" fill="#494645"/>
<path fill-rule="evenodd" clip-rule="evenodd" d="M12.6874 4.16688C12.6798 2.6082 13.8906 1.25496 16.6008 1.2012C19.311 1.14744 21.12 2.84508 20.796 4.1598C20.3735 5.87484 17.4288 6.3564 17.4768 8.16564C17.484 8.44092 15.6912 8.41608 15.6912 8.14068C15.6499 6.33852 19.2263 5.4678 19.2803 4.12608C19.3276 2.95008 18.3669 2.31228 16.6153 2.31228C15.3983 2.31228 14.3755 2.93916 14.2859 4.15284C14.2705 4.4094 12.6885 4.4238 12.6871 4.16688H12.6874Z" fill="#E1B100"/>
<path fill-rule="evenodd" clip-rule="evenodd" d="M16.5743 9.02063C17.2573 9.02063 17.8117 9.38783 17.8117 9.84035C17.8117 10.2929 17.2573 10.66 16.5743 10.66C15.8913 10.66 15.337 10.2928 15.337 9.84035C15.337 9.38795 15.8914 9.02063 16.5743 9.02063Z" fill="#E1B100"/>
</svg>
