<svg width="60" height="60" viewBox="0 0 60 60" fill="none" xmlns="http://www.w3.org/2000/svg">
<g clip-path="url(#clip0_313_111)">
<path d="M28.75 7.5C30.1307 7.5 31.25 8.6193 31.25 10C31.25 11.2821 30.2849 12.3388 29.0416 12.4832L28.75 12.5H15V47.5H40V31.25C40 29.8693 41.1193 28.75 42.5 28.75C43.7821 28.75 44.8388 29.7151 44.9832 30.9584L45 31.25V47.5H50C51.3807 47.5 52.5 48.6193 52.5 50C52.5 51.2821 51.5349 52.3388 50.2916 52.4832L50 52.5H10C8.6193 52.5 7.5 51.3807 7.5 50C7.5 48.7179 8.46511 47.6612 9.70845 47.5168L10 47.5V12.5C10 9.86409 12.0397 7.70459 14.6268 7.51371L15 7.5H28.75ZM33.75 27.5C35.821 27.5 37.5 29.179 37.5 31.25C37.5 33.321 35.821 35 33.75 35C31.679 35 30 33.321 30 31.25C30 29.179 31.679 27.5 33.75 27.5ZM46.4677 10.4289L51.7677 15.7287C52.7435 16.7046 52.744 18.2866 51.7688 19.2631L46.469 24.57C45.4933 25.547 43.9102 25.548 42.9332 24.5723C41.9565 23.5966 41.9555 22.0137 42.931 21.0367L43.9708 19.9957H35.95C34.5693 19.9957 33.45 18.8764 33.45 17.4957C33.45 16.115 34.5693 14.9957 35.95 14.9957H43.9635L42.9322 13.9644C41.956 12.9881 41.956 11.4052 42.9322 10.4289C43.9085 9.45257 45.4915 9.45257 46.4677 10.4289Z" fill="#09244B"/>
</g>
<defs>
<clipPath id="clip0_313_111">
<rect width="60" height="60" fill="white"/>
</clipPath>
</defs>
</svg>
