<svg width="60" height="61" viewBox="0 0 60 61" fill="none" xmlns="http://www.w3.org/2000/svg">
<path d="M57.9375 26C57.75 25.8125 57.75 25.625 57.5625 25.4375L50.0625 17.9375C49.3125 17.1875 48.1875 17.1875 47.4375 17.9375C46.6875 18.6875 46.6875 19.8125 47.4375 20.5625L51.75 24.875H41.25V19.25V6.125C41.25 5 40.5 4.25 39.375 4.25H7.5C7.3125 4.25 6.9375 4.25 6.75 4.4375C6.75 4.4375 6.75 4.4375 6.5625 4.4375C6.5625 4.4375 6.375 4.4375 6.375 4.625L6.1875 4.8125C6 5 5.8125 5.1875 5.8125 5.375C5.8125 5.375 5.8125 5.375 5.8125 5.5625C5.625 5.75 5.625 5.9375 5.625 6.125V47.375C5.625 48.125 6 48.875 6.75 49.0625L23.625 56.5625C23.8125 56.75 24.1875 56.75 24.375 56.75C24.75 56.75 25.125 56.5625 25.3125 56.375C25.875 56 26.25 55.4375 26.25 54.875V49.25H39.375C40.5 49.25 41.25 48.5 41.25 47.375V28.625H51.75L47.4375 32.9375C46.6875 33.6875 46.6875 34.8125 47.4375 35.5625C47.8125 35.9375 48.375 36.125 48.75 36.125C49.125 36.125 49.6875 35.9375 50.0625 35.5625L57.5625 28.0625C57.75 27.875 57.9375 27.6875 57.9375 27.5C58.125 26.9375 58.125 26.5625 57.9375 26ZM18.75 39.875C18.75 41 18 41.75 16.875 41.75C15.75 41.75 15 41 15 39.875V32.375C15 31.25 15.75 30.5 16.875 30.5C18 30.5 18.75 31.25 18.75 32.375V39.875ZM37.5 19.25V45.5H26.25V13.625C26.25 12.875 25.875 12.125 25.125 11.9375L16.3125 8H37.5V19.25Z" fill="white" fill-opacity="0.69"/>
</svg>
