<svg width="60" height="60" viewBox="0 0 60 60" fill="none" xmlns="http://www.w3.org/2000/svg">
<path fill-rule="evenodd" clip-rule="evenodd" d="M19.0533 17.5L22.6516 21.0983C24.1161 22.5628 24.1161 24.9372 22.6516 26.4018C21.1872 27.866 18.8128 27.866 17.3484 26.4018L7.34835 16.4017C5.88388 14.9372 5.88388 12.5628 7.34835 11.0984L17.3484 1.09835C18.8128 -0.366117 21.1872 -0.366117 22.6516 1.09835C24.1161 2.56283 24.1161 4.93718 22.6516 6.40165L19.0533 10H30C43.807 10 55 21.1929 55 35C55 48.807 43.807 60 30 60C16.1929 60 5 48.807 5 35C5 32.929 6.67893 31.25 8.75 31.25C10.8211 31.25 12.5 32.929 12.5 35C12.5 44.665 20.335 52.5 30 52.5C39.665 52.5 47.5 44.665 47.5 35C47.5 25.335 39.665 17.5 30 17.5H19.0533ZM32.5 25V35H37.5C38.8807 35 40 36.1193 40 37.5C40 38.8807 38.8807 40 37.5 40H30C28.6193 40 27.5 38.8807 27.5 37.5V25C27.5 23.6193 28.6193 22.5 30 22.5C31.3807 22.5 32.5 23.6193 32.5 25Z" fill="white" fill-opacity="0.69"/>
</svg>
