<svg width="60" height="60" viewBox="0 0 60 60" fill="none" xmlns="http://www.w3.org/2000/svg">
<path d="M37.5005 10V12.5C37.5005 17.214 37.5005 19.5711 38.965 21.0355C40.4295 22.5 42.7865 22.5 47.5005 22.5H51.2505M51.2505 22.5L45.0005 17.5M51.2505 22.5L45.0005 27.5" stroke="#1C274C" stroke-width="3.75" stroke-linecap="round" stroke-linejoin="round"/>
<path d="M10.0164 19.8327C9.83553 24.6031 11.0428 32.7043 19.1693 40.8308C21.1298 42.7913 23.0888 44.349 25 45.5818M13.8445 12.3431C17.3269 8.8607 22.8829 9.3286 25.094 13.2904L26.7165 16.1978C28.1808 18.8215 27.593 22.2633 25.2868 24.5695C25.2868 24.5695 22.4897 27.367 27.5613 32.4388C32.6313 37.5088 35.4305 34.7132 35.4305 34.7132C37.7368 32.407 41.1785 31.8193 43.8023 33.2835L46.7095 34.906C50.6715 37.117 51.1393 42.673 47.657 46.1555C45.5645 48.248 43.001 49.8763 40.1673 49.9835C38.1323 50.0608 35.4908 49.8852 32.5 49.0277" stroke="#1C274C" stroke-width="3.75" stroke-linecap="round"/>
</svg>
