<svg xmlns="http://www.w3.org/2000/svg"  viewBox="0 0 50 50" width="100px" height="100px" baseProfile="basic"><polygon fill="#577be6" points="39,35.39 36,37.12 36,46.36 33,48.09 13,36.55 13,28.46 16,26.73 20,29.04 20,32.51 29,37.7 29,33.08 26,31.35 34,26.73"/><polygon fill="#577be6" points="37,13.45 37,21.54 34,23.27 30,20.96 30,17.49 21,12.3 21,16.92 24,18.65 16,23.27 11,14.61 14,12.88 14,3.64 17,1.91"/><polygon fill="#6189ff" points="33,35.392 36,37.124 31,28.464 26,31.351 29,33.083 29,41.166 17,34.238 17,30.774 13,28.464 13,36.547 33,48.094"/><polygon fill="#6189ff" points="14,16.34 11,14.608 16,23.268 21,20.381 18,18.649 18,10.566 30,17.494 30,20.959 34,23.268 34,15.185 14,3.638"/><polygon fill="#4460b3" points="34,15.185 37,13.453 37,21.536 34,23.268"/><polygon fill="#4460b3" points="33,35.392 36,37.124 36,46.362 33,48.094"/><polygon fill="#4460b3" points="18,10.566 21,12.298 21,16.917 18,18.649"/><polygon fill="#4460b3" points="17,30.774 20,29.041 20,32.506 17,34.238"/><rect width="3.464" height="10" x="33.268" y="26.928" fill="#4d6dcc" transform="rotate(-30 34.998 31.93)"/></svg>