<svg width="60" height="60" viewBox="0 0 60 60" fill="none" xmlns="http://www.w3.org/2000/svg">
<path d="M2.98126 5.10938H57.0235V41.4469H2.98126V5.10938Z" fill="url(#paint0_linear_307_87)"/>
<path d="M55.9172 6.21563V40.3453H4.08281V6.21563H55.9172ZM58.125 4.00781H1.875V42.5531H58.125V4.00781Z" fill="url(#paint1_linear_307_87)"/>
<path d="M46.3594 37.4297C45.7735 36.3656 46.5188 35.2828 47.7938 33.9422C49.8141 31.8141 52.0125 26.8781 49.9688 21.8672C49.9828 21.8391 49.5656 20.9953 49.5797 20.9672L48.7406 20.925C48.4735 20.8875 39.2438 20.8687 30.0047 20.8687C20.7656 20.8687 11.536 20.8875 11.2688 20.925C11.2688 20.925 10.0266 21.8391 10.036 21.8672C7.99689 26.8781 10.1906 31.8094 12.211 33.9422C13.4813 35.2828 14.2266 36.3656 13.6453 37.4297C13.0781 38.4656 11.3906 38.6156 11.3906 38.6156C11.3906 38.6156 11.7797 39.675 12.7172 40.2469C13.5844 40.7766 14.6531 40.8984 15.3891 40.9172C15.3891 40.9172 18.2719 44.9062 25.8094 44.9062H34.2C41.7375 44.9062 44.6203 40.9172 44.6203 40.9172C45.3563 40.8984 46.425 40.7766 47.2922 40.2469C48.2297 39.675 48.6188 38.6156 48.6188 38.6156C48.6188 38.6156 46.9266 38.4656 46.3594 37.4297Z" fill="#AB872F"/>
<path d="M29.9953 44.9016V40.4766L43.3875 39.4172L44.6062 40.9172C44.6062 40.9172 41.7234 44.9062 34.1859 44.9062L29.9953 44.9016Z" fill="url(#paint2_radial_307_87)"/>
<path d="M44.5781 38.9813C42.5719 35.9344 47.0203 34.7953 47.0203 34.7953L47.025 34.8C46.2516 35.7609 45.9 36.6 46.3547 37.4297C46.9219 38.4656 48.6094 38.6156 48.6094 38.6156C48.6094 38.6156 46.3078 40.6594 44.5781 38.9813Z" fill="url(#paint3_radial_307_87)"/>
<path d="M49.9781 21.8672C51.9703 26.7187 49.875 31.7156 47.911 33.825C47.6438 34.1156 46.5 35.2359 46.2375 36.1312C46.2375 36.1312 41.7656 29.8922 40.4297 26.2266C40.1625 25.4859 39.9141 24.7265 39.8813 23.939C39.8578 23.3484 39.9469 22.6453 40.2891 22.1437C40.7063 21.5297 49.7391 21.3469 49.7391 21.3469C49.7391 21.3516 49.9781 21.8672 49.9781 21.8672Z" fill="url(#paint4_radial_307_87)"/>
<path d="M10.0312 21.8672C8.04372 26.7188 10.139 31.7156 12.0984 33.8203C12.3703 34.1109 13.5093 35.2313 13.7718 36.1266C13.7718 36.1266 18.2437 29.8875 19.5797 26.2219C19.8515 25.4813 20.0953 24.7219 20.1281 23.9344C20.1515 23.3438 20.0625 22.6406 19.7203 22.1391C19.3031 21.525 18.8156 21.6891 18.1078 21.6891C16.7578 21.6891 10.8468 21.3422 10.3875 21.3422C10.3922 21.3516 10.0312 21.8672 10.0312 21.8672Z" fill="url(#paint5_radial_307_87)"/>
<path d="M30.0141 44.9016V40.4766L16.6219 39.4172L15.4031 40.9172C15.4031 40.9172 18.2859 44.9062 25.8235 44.9062L30.0141 44.9016Z" fill="url(#paint6_radial_307_87)"/>
<path d="M15.4313 38.9813C17.4375 35.9344 12.9891 34.7953 12.9891 34.7953L12.9844 34.8C13.7578 35.7609 14.1094 36.6 13.6547 37.4297C13.0875 38.4656 11.4 38.6156 11.4 38.6156C11.4 38.6156 13.7016 40.6594 15.4313 38.9813Z" fill="url(#paint7_radial_307_87)"/>
<path d="M53.6719 56.6015C53.6719 49.35 41.7937 45.5578 30.0656 45.5578H30C18.2156 45.5719 6.32812 48.989 6.32812 56.6015V58.125H53.6719V56.6015Z" fill="url(#paint8_linear_307_87)"/>
<path d="M30 43.2797H25.7438V47.9578L29.9907 49.0734L34.2563 47.9578V43.2797H30Z" fill="#C48E6A"/>
<path d="M5.625 56.6015V58.125H21.0422L21.6656 45.45C12.9 46.7437 5.625 50.2265 5.625 56.6015Z" fill="url(#paint9_linear_307_87)"/>
<path d="M38.3344 45.45L38.9531 58.125H54.375V56.6015C54.375 50.2265 47.1 46.7437 38.3344 45.45Z" fill="url(#paint10_linear_307_87)"/>
<path d="M25.3266 43.1812L30.0094 49.1906L22.3969 52.3031L21.2672 45.4875L25.3266 43.1812Z" fill="#66C0E8"/>
<path d="M34.6735 43.1812L29.9907 49.1906L37.6032 52.3031L38.7328 45.4875L34.6735 43.1812Z" fill="#66C0E8"/>
<path d="M22.9125 44.5312C22.9125 44.5312 22.3781 45.8062 22.0031 47.3437C21.2578 50.4 21.2109 54.75 21.2109 54.75C21.2109 54.75 17.9812 53.6531 16.9734 50.9766C15.7828 47.8125 17.7937 46.0734 17.7937 46.0734C17.7937 46.0734 18.2156 45.8953 19.9875 44.9203C21.7594 43.9453 22.9125 44.5312 22.9125 44.5312Z" fill="#AF5214"/>
<path d="M37.0875 44.5312C37.0875 44.5312 37.6219 45.8062 37.9969 47.3437C38.7422 50.4 38.7891 54.75 38.7891 54.75C38.7891 54.75 42.0187 53.6531 43.0266 50.9766C44.2172 47.8125 42.2062 46.0734 42.2062 46.0734C42.2062 46.0734 41.7844 45.8953 40.0125 44.9203C38.2406 43.9453 37.0875 44.5312 37.0875 44.5312Z" fill="#AF5214"/>
<path d="M42.7125 23.6391H17.0953C14.3344 23.6391 12.075 26.0484 12.075 28.9875C12.075 31.9266 14.3344 34.3359 17.0953 34.3359H42.7125C45.4735 34.3359 47.7328 31.9266 47.7328 28.9875C47.7328 26.0484 45.4735 23.6391 42.7125 23.6391Z" fill="#C48E6A"/>
<path d="M29.9016 5.18906C21.7453 5.18906 14.1891 13.9125 14.1891 26.4703C14.1891 38.9578 21.975 45.1312 29.9016 45.1312C37.8281 45.1312 45.6141 38.9531 45.6141 26.4656C45.6141 13.9125 38.0625 5.18906 29.9016 5.18906Z" fill="#E0BB95"/>
<path d="M22.4906 29.9578C23.7669 29.9578 24.8016 28.8875 24.8016 27.5672C24.8016 26.2469 23.7669 25.1766 22.4906 25.1766C21.2143 25.1766 20.1797 26.2469 20.1797 27.5672C20.1797 28.8875 21.2143 29.9578 22.4906 29.9578Z" fill="#5D4037"/>
<path d="M37.0922 29.9578C38.3685 29.9578 39.4031 28.8875 39.4031 27.5672C39.4031 26.2469 38.3685 25.1766 37.0922 25.1766C35.8159 25.1766 34.7812 26.2469 34.7812 27.5672C34.7812 28.8875 35.8159 29.9578 37.0922 29.9578Z" fill="#5D4037"/>
<path d="M25.9547 23.3531C25.5187 22.7766 24.5156 21.9422 22.5656 21.9422C20.6156 21.9422 19.6078 22.7813 19.1765 23.3531C18.9843 23.6063 19.0312 23.9016 19.1672 24.0797C19.289 24.2438 19.6547 24.3984 20.0578 24.2625C20.4609 24.1266 21.2484 23.7188 22.5656 23.7094C23.8828 23.7188 24.6703 24.1266 25.0734 24.2625C25.4765 24.3984 25.8422 24.2484 25.964 24.0797C26.0953 23.9016 26.1468 23.6063 25.9547 23.3531Z" fill="#AB872F"/>
<path d="M40.4812 23.3531C40.0453 22.7766 39.0421 21.9422 37.0921 21.9422C35.1421 21.9422 34.1343 22.7813 33.7031 23.3531C33.5109 23.6063 33.5578 23.9016 33.6937 24.0797C33.8156 24.2438 34.1812 24.3984 34.5843 24.2625C34.9875 24.1266 35.775 23.7188 37.0921 23.7094C38.4093 23.7188 39.1968 24.1266 39.6 24.2625C40.0031 24.3984 40.3687 24.2484 40.4906 24.0797C40.6265 23.9016 40.6734 23.6063 40.4812 23.3531Z" fill="#AB872F"/>
<path d="M31.7109 31.9031C31.6594 31.8844 31.6125 31.8703 31.5609 31.8656H28.2422C28.1906 31.8703 28.1391 31.8844 28.0922 31.9031C27.7922 32.025 27.6281 32.3344 27.7688 32.6672C27.9094 33 28.5703 33.9281 29.9016 33.9281C31.2328 33.9281 31.8938 32.9953 32.0344 32.6672C32.1797 32.3344 32.0109 32.025 31.7109 31.9031Z" fill="#C48E6A"/>
<path d="M33.9 35.6906C32.4094 36.5765 27.511 36.5765 26.0203 35.6906C25.1625 35.1797 24.286 35.9625 24.6422 36.7406C24.9938 37.5047 27.661 39.2812 29.9719 39.2812C32.2828 39.2812 34.9172 37.5047 35.2688 36.7406C35.625 35.9625 34.7578 35.1797 33.9 35.6906Z" fill="#6D4C41"/>
<path d="M43.9828 24.811C43.95 24.2531 43.9266 24.1969 43.1907 23.9625C42.6141 23.7797 39.4641 23.5219 37.0922 23.6531C36.9235 23.6625 36.7594 23.6719 36.6047 23.686C34.4532 23.8688 31.8703 24.736 29.9297 24.7828C29.1047 24.8016 25.7063 23.911 23.3016 23.7235C23.1469 23.7141 22.9922 23.7 22.8328 23.6953C20.4563 23.5735 17.2922 23.85 16.7157 24.0375C15.9797 24.2766 15.9563 24.3328 15.9282 24.8906C15.8953 25.4485 15.9891 25.9219 16.425 26.0672C17.0203 26.2641 17.025 27.0047 17.4235 29.1328C17.7844 31.0735 18.6516 32.6063 22.3782 32.8735C22.5375 32.8828 22.6875 32.8922 22.8375 32.8922C26.1328 32.9391 27.2672 30.7688 27.6422 30.0469C28.3407 28.7063 28.1203 26.8594 29.9672 26.8547C31.8094 26.85 31.636 28.6641 32.3438 30C32.7235 30.7172 33.8297 32.8969 37.0969 32.85C37.2563 32.85 37.4203 32.8406 37.5891 32.8266C41.311 32.536 42.1735 30.9985 42.5203 29.0578C42.9047 26.925 42.9094 26.1797 43.5 25.9828C43.9266 25.8422 44.0203 25.3688 43.9828 24.811ZM24.975 31.9547C24.4032 32.2219 23.6391 32.3578 22.8328 32.3578C21.15 32.3531 19.2844 31.7625 18.6094 30.5719C17.6532 28.875 17.4047 25.4438 18.6235 24.7266C19.1578 24.4125 20.9625 24.1969 22.8282 24.2766C24.7641 24.361 26.7657 24.7641 27.4875 25.711C28.6828 27.2719 26.7844 31.1016 24.975 31.9547ZM41.3344 30.5016C40.6641 31.7016 38.7844 32.3063 37.0922 32.311C36.2953 32.3156 35.5407 32.1844 34.9782 31.9219C33.1641 31.0781 31.2422 27.2625 32.4235 25.6922C33.1407 24.736 35.1516 24.3235 37.0922 24.2297C38.9532 24.1406 40.7532 24.3469 41.2828 24.6563C42.5063 25.3688 42.2813 28.8 41.3344 30.5016Z" fill="#212121" stroke="#212121" stroke-width="0.257812" stroke-miterlimit="10"/>
<path opacity="0.67" d="M47.6578 57.0047L47.925 55.9734L47.9297 55.95L48.8344 52.3875L45.6 51.4593L29.2313 46.7578C29.2078 46.7531 29.1891 46.7531 29.1703 46.7437C28.4384 46.551 27.6601 46.6526 27.0021 47.0267C26.3441 47.4008 25.8588 48.0177 25.65 48.7453L22.9547 58.125H47.3391L47.6578 57.0047Z" fill="url(#paint11_linear_307_87)"/>
<path d="M49.5703 52.4437C49.7062 51.9703 49.4344 51.4781 48.9609 51.3469L30.825 46.1437C30.0859 45.9325 29.2932 46.0231 28.6209 46.3957C27.9486 46.7684 27.4516 47.3925 27.2391 48.1312L24.375 58.125H47.9437L49.5703 52.4437Z" fill="#424242"/>
<path d="M49.2563 56.3953C49.4203 55.8234 49.0781 55.2234 48.4969 55.0593L29.0344 49.4812C26.9109 48.8718 26.5406 50.5828 25.9453 52.6593L24.375 58.125H48.7594L49.2563 56.3953Z" fill="url(#paint12_linear_307_87)"/>
<path d="M29.6531 46.05C29.0932 46.1225 28.5666 46.3574 28.1385 46.7255C27.7104 47.0937 27.3994 47.5791 27.2437 48.1219L24.375 58.125H26.1891L29.6531 46.05Z" fill="url(#paint13_linear_307_87)"/>
<path opacity="0.2" d="M30.1547 47.6109C30.2391 47.6109 30.3328 47.6203 30.4313 47.6437L47.8922 52.6594L47.7469 53.1656C42.2203 51.6234 31.6735 48.6562 29.4938 47.9344C29.6063 47.7797 29.8266 47.6109 30.1547 47.6109ZM30.1547 46.05C28.036 46.05 26.9766 48.6609 28.6922 49.3031C30.5813 50.0062 48.8157 55.0781 48.8157 55.0781L49.5563 52.4906C49.7016 51.9937 49.4672 51.4875 49.036 51.3656L30.8297 46.1344C30.5953 46.0781 30.3703 46.05 30.1547 46.05Z" fill="#424242"/>
<path d="M48.4547 52.5562L29.7985 47.2031C29.2922 47.0578 28.7391 47.4187 28.5703 48.0047L28.5422 48.1078C28.3735 48.6937 28.65 49.2937 29.1563 49.439L47.8125 54.7922C47.8125 54.7922 47.6532 54.4031 47.8453 53.714C48.0375 53.0203 48.4547 52.5562 48.4547 52.5562Z" fill="url(#paint14_linear_307_87)"/>
<path d="M48.7828 11.7703C47.639 10.0406 45.075 7.72033 42.7734 7.56564C42.4031 5.35314 40.0359 3.47814 37.7437 2.75158C31.5422 0.787513 27.5062 2.99064 25.3406 4.17189C24.8906 4.41564 21.9797 6.03283 19.9453 4.87501C18.6703 4.14845 18.6937 2.18439 18.6937 2.18439C18.6937 2.18439 14.7 3.70783 16.064 7.95001C14.6906 8.00626 12.8906 8.58751 11.939 10.5141C10.8047 12.811 11.2078 14.7281 11.5359 15.6469C10.3547 16.65 8.86873 18.7828 9.88592 21.5531C10.6547 23.6391 13.7156 24.6 13.7156 24.6C13.5 28.3547 14.1984 30.6656 14.5687 31.5985C14.6344 31.7625 14.864 31.7485 14.9062 31.5797C15.3703 29.7188 16.9547 23.236 16.7953 22.1063C16.7953 22.1063 22.1156 21.0516 27.1875 17.3156C28.2187 16.5563 29.339 15.9094 30.5297 15.436C36.9 12.9 38.2312 17.2266 38.2312 17.2266C38.2312 17.2266 42.6469 16.3781 43.9781 22.5094C44.4797 24.8063 44.8172 28.486 45.1031 31.0594C45.1219 31.2422 45.3703 31.2797 45.4406 31.111C45.8859 30.0891 46.7765 28.0641 46.9875 25.9969C47.0625 25.2703 49.0219 24.3094 49.8656 21.1875C50.9953 17.025 49.6125 13.0219 48.7828 11.7703Z" fill="#AB872F"/>
<path d="M46.9781 26.0156C47.0531 25.2891 49.0125 24.3281 49.8562 21.2063C49.9453 20.8734 50.0203 20.5359 50.0906 20.1984C50.775 16.4063 49.5468 12.9234 48.7828 11.7703C47.7234 10.1719 45.4547 8.07188 43.3031 7.64063C43.1156 7.61719 42.9328 7.59376 42.7593 7.58438C42.7593 7.58438 42.914 8.59219 42.5062 9.39376C41.9812 10.4344 40.9078 10.6828 40.9078 10.6828C46.5187 16.2984 46.1203 20.9953 46.9781 26.0156Z" fill="url(#paint15_radial_307_87)"/>
<path d="M26.6953 3.46407C26.1796 3.71251 25.7296 3.96094 25.3359 4.17188C24.8859 4.41563 21.975 6.03282 19.9406 4.87501C18.689 4.16251 18.689 2.25938 18.689 2.19376C18.1125 2.92969 16.3687 8.18438 21.4687 8.53594C23.6671 8.68594 25.0218 6.76876 25.8281 5.14688C26.1187 4.55626 26.5734 3.69376 26.6953 3.46407Z" fill="url(#paint16_radial_307_87)"/>
<path d="M37.1062 2.56407C40.5375 3.49219 42.2109 5.24063 42.7687 7.57032C42.9328 8.25469 43.1297 14.6391 30.9422 7.38282C26.4094 4.68282 27.6468 2.99532 28.1765 2.80313C30.2484 2.05313 33.2625 1.52344 37.1062 2.56407Z" fill="url(#paint17_radial_307_87)"/>
<path d="M18.675 2.19376C18.6703 2.19845 18.6609 2.19845 18.6469 2.20782H18.6422C18.2062 2.39064 14.7797 3.9797 16.0594 7.95001L19.7062 8.53595C16.4766 5.26407 18.689 2.18439 18.689 2.18439C18.689 2.18439 18.6797 2.18907 18.675 2.19376Z" fill="url(#paint18_radial_307_87)"/>
<path d="M18.314 8.31095L16.0593 7.95001C15.9703 7.95001 15.6703 7.97814 15.5062 8.00157C14.2359 8.1797 12.7406 8.83595 11.9297 10.5141C11.0578 12.3235 11.0812 13.875 11.3203 14.9109C11.3906 15.2578 11.5312 15.6516 11.5312 15.6516C11.5312 15.6516 12.6468 14.5922 15.3047 14.5219L18.314 8.31095Z" fill="url(#paint19_radial_307_87)"/>
<path d="M11.4234 15.7406C10.3125 16.725 8.81716 18.9234 9.91872 21.6516C10.7484 23.7094 13.7109 24.6 13.7109 24.6C13.7109 24.6094 14.3015 24.7875 14.6062 24.7875L15.3 14.5219C13.8797 14.5219 12.5156 14.9484 11.6343 15.5625C11.6484 15.5766 11.4187 15.7266 11.4234 15.7406Z" fill="url(#paint20_radial_307_87)"/>
<defs>
<linearGradient id="paint0_linear_307_87" x1="29.9995" y1="5.34141" x2="29.9995" y2="41.4792" gradientUnits="userSpaceOnUse">
<stop stop-color="#26A69A"/>
<stop offset="1" stop-color="#00796B"/>
</linearGradient>
<linearGradient id="paint1_linear_307_87" x1="29.9995" y1="4.00547" x2="29.9995" y2="42.5512" gradientUnits="userSpaceOnUse">
<stop stop-color="#8D6E63"/>
<stop offset="0.779" stop-color="#795548"/>
</linearGradient>
<radialGradient id="paint2_radial_307_87" cx="0" cy="0" r="1" gradientUnits="userSpaceOnUse" gradientTransform="translate(36.8358 38.508) scale(10.9777 5.39223)">
<stop offset="0.728" stop-color="#BFA055" stop-opacity="0"/>
<stop offset="1" stop-color="#BFA055"/>
</radialGradient>
<radialGradient id="paint3_radial_307_87" cx="0" cy="0" r="1" gradientUnits="userSpaceOnUse" gradientTransform="translate(47.6488 36.8744) rotate(154.924) scale(3.24405 2.40663)">
<stop offset="0.663" stop-color="#BFA055"/>
<stop offset="1" stop-color="#BFA055" stop-opacity="0"/>
</radialGradient>
<radialGradient id="paint4_radial_307_87" cx="0" cy="0" r="1" gradientUnits="userSpaceOnUse" gradientTransform="translate(39.2413 27.6991) rotate(-94.2783) scale(14.2493 11.8759)">
<stop offset="0.725" stop-color="#BFA055" stop-opacity="0"/>
<stop offset="1" stop-color="#BFA055"/>
</radialGradient>
<radialGradient id="paint5_radial_307_87" cx="0" cy="0" r="1" gradientUnits="userSpaceOnUse" gradientTransform="translate(20.7695 27.6988) rotate(-85.7217) scale(14.2493 11.8759)">
<stop offset="0.725" stop-color="#BFA055" stop-opacity="0"/>
<stop offset="1" stop-color="#BFA055"/>
</radialGradient>
<radialGradient id="paint6_radial_307_87" cx="0" cy="0" r="1" gradientUnits="userSpaceOnUse" gradientTransform="translate(23.1745 38.508) rotate(180) scale(10.9777 5.39223)">
<stop offset="0.728" stop-color="#BFA055" stop-opacity="0"/>
<stop offset="1" stop-color="#BFA055"/>
</radialGradient>
<radialGradient id="paint7_radial_307_87" cx="0" cy="0" r="1" gradientUnits="userSpaceOnUse" gradientTransform="translate(12.3623 36.8748) rotate(25.0761) scale(3.24405 2.40663)">
<stop offset="0.663" stop-color="#BFA055"/>
<stop offset="1" stop-color="#BFA055" stop-opacity="0"/>
</radialGradient>
<linearGradient id="paint8_linear_307_87" x1="30" y1="47.8556" x2="30" y2="54.8728" gradientUnits="userSpaceOnUse">
<stop stop-color="#E1F5FE"/>
<stop offset="1" stop-color="#81D4FA"/>
</linearGradient>
<linearGradient id="paint9_linear_307_87" x1="13.6467" y1="46.3331" x2="13.6467" y2="57.6703" gradientUnits="userSpaceOnUse">
<stop stop-color="#FFA000"/>
<stop offset="0.341" stop-color="#FF9300"/>
<stop offset="0.972" stop-color="#FF7100"/>
<stop offset="1" stop-color="#FF6F00"/>
</linearGradient>
<linearGradient id="paint10_linear_307_87" x1="46.3538" y1="46.2023" x2="46.3538" y2="57.7467" gradientUnits="userSpaceOnUse">
<stop stop-color="#FFA000"/>
<stop offset="0.341" stop-color="#FF9300"/>
<stop offset="0.972" stop-color="#FF7100"/>
<stop offset="1" stop-color="#FF6F00"/>
</linearGradient>
<linearGradient id="paint11_linear_307_87" x1="37.298" y1="49.3533" x2="36.0685" y2="54.5306" gradientUnits="userSpaceOnUse">
<stop offset="0.002" stop-color="#212121" stop-opacity="0.2"/>
<stop offset="1" stop-color="#212121" stop-opacity="0.6"/>
</linearGradient>
<linearGradient id="paint12_linear_307_87" x1="38.3625" y1="51.9853" x2="37.4386" y2="55.0847" gradientUnits="userSpaceOnUse">
<stop stop-color="#EF5350"/>
<stop offset="1" stop-color="#E53935"/>
</linearGradient>
<linearGradient id="paint13_linear_307_87" x1="27.3773" y1="51.0408" x2="28.2506" y2="48.2958" gradientUnits="userSpaceOnUse">
<stop stop-color="#212121"/>
<stop offset="1" stop-color="#424242"/>
</linearGradient>
<linearGradient id="paint14_linear_307_87" x1="28.558" y1="48.055" x2="48.1325" y2="53.6724" gradientUnits="userSpaceOnUse">
<stop offset="0.01" stop-color="#BDBDBD"/>
<stop offset="0.987" stop-color="#F8F8F7"/>
</linearGradient>
<radialGradient id="paint15_radial_307_87" cx="0" cy="0" r="1" gradientUnits="userSpaceOnUse" gradientTransform="translate(38.4454 20.1804) rotate(72.0851) scale(16.7027 12.393)">
<stop offset="0.699" stop-color="#BFA055" stop-opacity="0"/>
<stop offset="1" stop-color="#BFA055"/>
</radialGradient>
<radialGradient id="paint16_radial_307_87" cx="0" cy="0" r="1" gradientUnits="userSpaceOnUse" gradientTransform="translate(22.1629 1.96947) rotate(28.2026) scale(4.37962 5.19295)">
<stop offset="0.58" stop-color="#BFA055"/>
<stop offset="1" stop-color="#BFA055" stop-opacity="0"/>
</radialGradient>
<radialGradient id="paint17_radial_307_87" cx="0" cy="0" r="1" gradientUnits="userSpaceOnUse" gradientTransform="translate(31.9508 9.9231) rotate(-157.19) scale(13.6967 7.69759)">
<stop offset="0.699" stop-color="#BFA055" stop-opacity="0"/>
<stop offset="1" stop-color="#BFA055"/>
</radialGradient>
<radialGradient id="paint18_radial_307_87" cx="0" cy="0" r="1" gradientUnits="userSpaceOnUse" gradientTransform="translate(20.4042 5.96479) scale(4.01953 4.91709)">
<stop offset="0.702" stop-color="#BFA055" stop-opacity="0"/>
<stop offset="1" stop-color="#BFA055"/>
</radialGradient>
<radialGradient id="paint19_radial_307_87" cx="0" cy="0" r="1" gradientUnits="userSpaceOnUse" gradientTransform="translate(19.8505 13.06) rotate(-164.942) scale(7.53918 7.0553)">
<stop offset="0.66" stop-color="#BFA055" stop-opacity="0"/>
<stop offset="1" stop-color="#BFA055"/>
</radialGradient>
<radialGradient id="paint20_radial_307_87" cx="0" cy="0" r="1" gradientUnits="userSpaceOnUse" gradientTransform="translate(18.0638 20.3395) rotate(7.83355) scale(7.91557 11.1227)">
<stop offset="0.598" stop-color="#BFA055" stop-opacity="0"/>
<stop offset="1" stop-color="#BFA055"/>
</radialGradient>
</defs>
</svg>
