<svg width="188" height="119" viewBox="0 0 188 119" fill="none" xmlns="http://www.w3.org/2000/svg">
<g clip-path="url(#clip0_403_2)">
<path d="M54.0001 4.00001C54.0001 5.65001 54.0001 7.30001 54.0001 9.00001C53.1751 9.05157 52.3501 9.10314 51.5001 9.15626C43.9318 9.89957 38.0093 11.5209 31.2501 14.9375C30.2137 15.4596 30.2137 15.4596 29.1563 15.9922C25.8826 17.7273 24.0883 18.8677 22.0001 22C22.9901 22.66 23.9801 23.32 25.0001 24C25.5686 23.6017 26.137 23.2034 26.7227 22.793C38.6718 14.5942 50.5673 12.194 64.918 14.4609C75.059 17.2018 85.4811 23.5327 91.0059 32.6621C97.6772 44.7013 100.165 56.6219 97.3165 70.2774C95.111 76.6558 91.6695 82.3614 88.0001 88C89.4851 88.99 89.4851 88.99 91.0001 90C97.5722 80.9304 101.073 72.5854 102.606 61.4688C103 59 103 59 104 57C131.72 57 159.44 57 188 57C188 58.32 188 59.64 188 61C161.6 61 135.2 61 108 61C107.505 65.95 107.505 65.95 107 71C104.558 79.8707 100.224 87.4884 95.0001 95C95.7941 95.281 96.5882 95.562 97.4063 95.8516C100 97 100 97 101.5 99.375C102 102 102 102 100.625 104.313C100.089 104.869 99.5526 105.426 99.0001 106C97.0201 105.67 95 106 93 105C92.34 103.02 91.6801 101.04 91.0001 99C90.322 99.4589 89.644 99.9178 88.9454 100.391C75.1733 109.47 60.6359 114.436 44.0313 111.313C29.0629 108.118 16.751 100.518 8.12508 87.625C0.355905 74.5787 -2.56137 59.1259 1.12508 44.25C3.76785 35.9459 7.90304 28.0574 13.0001 21C12.2163 20.7113 11.4326 20.4225 10.6251 20.125C8.00008 19 8.00008 19 6.00008 17C6.32979 13.7029 6.62276 12.3773 9.00008 10C12.1251 10.375 12.1251 10.375 15.0001 11C15.6601 12.98 16.3201 14.96 17.0001 17C17.6781 16.5411 18.3562 16.0822 19.0548 15.6094C29.709 8.58525 40.9334 3.31229 54.0001 4.00001ZM17.0001 25C7.61995 34.6002 4.55799 47.0124 4.00008 60C4.19426 71.9647 10.1832 84.4967 18.3751 93.125C30.0779 103.628 43.1003 107.988 58.6563 107.383C68.3492 106.713 77.2434 102.794 85.0001 97C85.9901 95.515 85.9901 95.515 87.0001 94C85.6801 93.01 84.3601 92.02 83.0001 91C82.2344 91.5801 82.2344 91.5801 81.4532 92.1719C69.7241 100.574 57.2324 102.837 43.1095 100.527C33.9315 98.1174 24.6775 92.6984 19.0001 85C11.8025 72.379 8.68115 60.2369 11.6837 45.6875C13.7987 39.5092 17.1274 34.2282 21.0001 29C20.3401 27.68 19.6801 26.36 19.0001 25C18.3401 25 17.6801 25 17.0001 25Z" fill="white"/>
<path d="M51 14C51 28.52 51 43.04 51 58C54.63 58 58.26 58 62 58C62 53.38 62 48.76 62 44C67.94 44 73.88 44 80 44C80.33 60.5 80.66 77 81 94C64.4353 102.282 64.4353 102.282 54.1875 102.312C52.8817 102.329 51.5759 102.346 50.2305 102.363C46 102 46 102 36 99C36 71.94 36 44.88 36 17C46 14 46 14 51 14Z" fill="#FDD900"/>
<path d="M51 14C65.4454 14 75.465 16.8518 86.1875 26.5C95.8174 36.5997 98.4966 48.943 98.2773 62.4375C97.838 73.0872 92.5591 82.3605 85.3125 90C83 92 83 92 80 93C80 76.83 80 60.66 80 44C74.06 44 68.12 44 62 44C62 48.62 62 53.24 62 58C58.37 58 54.74 58 51 58C51 43.48 51 28.96 51 14Z" fill="#0593C8"/>
<path d="M35.9999 18C35.9999 44.4 35.9999 70.8 35.9999 98C24.817 94.2724 18.098 85.7992 12.7499 75.6211C8.4179 65.7687 8.21353 53.1287 11.6249 42.9375C15.4034 34.2456 25.0817 18 35.9999 18Z" fill="#0091C7"/>
<path d="M62 44C67.94 44 73.88 44 80 44C80.33 60.5 80.66 77 81 94C69 100 69 100 62 101C62 82.19 62 63.38 62 44Z" fill="#FBFBFC"/>
<path d="M51 14C62 14 62 14 70 16C69.67 25.24 69.34 34.48 69 44C66.69 44 64.38 44 62 44C62 48.62 62 53.24 62 58C58.37 58 54.74 58 51 58C51 43.48 51 28.96 51 14Z" fill="#013D57"/>
<path d="M51 58C54.63 58 58.26 58 62 58C62 72.52 62 87.04 62 102C58.37 102 54.74 102 51 102C51 87.48 51 72.96 51 58Z" fill="#ED1E25"/>
<path d="M36 71C40.95 71 45.9 71 51 71C51 81.23 51 91.46 51 102C42 101 42 101 36 99C36 89.76 36 80.52 36 71Z" fill="#FEFEFC"/>
<path d="M113.4 50V45.2H115.4V33.48L113 34.2V29.4L123.4 26.28V45.2H125.4V50H113.4ZM127.494 50V46.4L135.374 38.04C136.307 37.08 136.921 36.2667 137.214 35.6C137.534 34.9333 137.694 34.3067 137.694 33.72C137.694 32.9467 137.521 32.3867 137.174 32.04C136.827 31.6667 136.334 31.48 135.694 31.48C135.027 31.48 134.494 31.7333 134.094 32.24C133.694 32.7467 133.494 33.4267 133.494 34.28C133.494 34.6533 133.507 34.9867 133.534 35.28C133.587 35.5733 133.641 35.9067 133.694 36.28H127.614C127.507 35.88 127.414 35.4533 127.334 35C127.281 34.52 127.254 33.9733 127.254 33.36C127.254 31.1467 128.054 29.4133 129.654 28.16C131.281 26.9067 133.467 26.28 136.214 26.28C138.827 26.28 140.854 26.8667 142.294 28.04C143.761 29.2133 144.494 30.84 144.494 32.92C144.494 33.9867 144.347 34.96 144.054 35.84C143.761 36.72 143.227 37.68 142.454 38.72C141.681 39.76 140.574 41.0533 139.134 42.6L135.014 47.04L132.974 45.6H141.134V42H145.934V50H127.494ZM157.16 50.76L151.56 47.44L156.48 39.04L158.8 41.76C158.453 41.84 158.08 41.9067 157.68 41.96C157.307 41.9867 156.933 42 156.56 42C154.827 42 153.293 41.68 151.96 41.04C150.653 40.3733 149.627 39.4533 148.88 38.28C148.16 37.08 147.8 35.6933 147.8 34.12C147.8 32.5467 148.16 31.1733 148.88 30C149.627 28.8 150.653 27.88 151.96 27.24C153.293 26.5733 154.827 26.24 156.56 26.24C158.32 26.24 159.853 26.5733 161.16 27.24C162.493 27.88 163.52 28.7867 164.24 29.96C164.987 31.1067 165.36 32.44 165.36 33.96C165.36 34.8933 165.227 35.8133 164.96 36.72C164.72 37.6267 164.2 38.7733 163.4 40.16L157.16 50.76ZM156.6 36.8C157.187 36.8 157.653 36.56 158 36.08C158.373 35.6 158.56 34.9467 158.56 34.12C158.56 33.2667 158.373 32.6133 158 32.16C157.653 31.68 157.173 31.44 156.56 31.44C155.973 31.44 155.493 31.68 155.12 32.16C154.773 32.6133 154.6 33.2667 154.6 34.12C154.6 34.9467 154.787 35.6 155.16 36.08C155.533 36.56 156.013 36.8 156.6 36.8ZM175.981 50.4C174.167 50.4 172.581 50.0933 171.221 49.48C169.861 48.84 168.807 47.9733 168.061 46.88C167.314 45.76 166.941 44.5067 166.941 43.12C166.941 41.6533 167.301 40.4133 168.021 39.4C168.767 38.36 169.834 37.5067 171.221 36.84L171.421 38.4C170.167 37.7867 169.207 37.0267 168.541 36.12C167.874 35.2133 167.541 34.12 167.541 32.84C167.541 31.56 167.887 30.4267 168.581 29.44C169.301 28.4267 170.301 27.64 171.581 27.08C172.861 26.52 174.327 26.24 175.981 26.24C177.634 26.24 179.087 26.52 180.341 27.08C181.621 27.64 182.621 28.4267 183.341 29.44C184.061 30.4267 184.421 31.56 184.421 32.84C184.421 34.12 184.074 35.2133 183.381 36.12C182.714 37.0267 181.754 37.7867 180.501 38.4L180.701 36.84C182.087 37.5067 183.154 38.36 183.901 39.4C184.647 40.4133 185.021 41.6533 185.021 43.12C185.021 44.5067 184.634 45.76 183.861 46.88C183.114 47.9733 182.061 48.84 180.701 49.48C179.367 50.0933 177.794 50.4 175.981 50.4ZM173.741 42.72C173.741 43.4933 173.941 44.1067 174.341 44.56C174.741 44.9867 175.287 45.2 175.981 45.2C176.674 45.2 177.221 44.9867 177.621 44.56C178.021 44.1067 178.221 43.4933 178.221 42.72C178.221 41.9467 178.021 41.3467 177.621 40.92C177.221 40.4667 176.674 40.24 175.981 40.24C175.287 40.24 174.741 40.4667 174.341 40.92C173.941 41.3467 173.741 41.9467 173.741 42.72ZM174.141 33.24C174.141 33.8 174.301 34.24 174.621 34.56C174.941 34.88 175.394 35.04 175.981 35.04C176.541 35.04 176.981 34.88 177.301 34.56C177.647 34.24 177.821 33.8 177.821 33.24C177.821 32.68 177.647 32.24 177.301 31.92C176.981 31.6 176.541 31.44 175.981 31.44C175.394 31.44 174.941 31.6 174.621 31.92C174.301 32.24 174.141 32.68 174.141 33.24Z" fill="#FF0000"/>
<path d="M114.08 75V66.432H120.86V75H119.048V67.944H115.892V75H114.08ZM125.757 66.432C126.861 66.432 127.665 66.672 128.169 67.152C128.681 67.624 128.937 68.276 128.937 69.108C128.937 69.484 128.881 69.844 128.769 70.188C128.657 70.524 128.469 70.828 128.205 71.1C127.949 71.364 127.609 71.572 127.185 71.724C126.761 71.876 126.237 71.952 125.613 71.952H124.833V75H123.021V66.432H125.757ZM125.661 67.92H124.833V70.464H125.433C125.777 70.464 126.073 70.42 126.321 70.332C126.569 70.244 126.761 70.104 126.897 69.912C127.033 69.72 127.101 69.472 127.101 69.168C127.101 68.744 126.985 68.432 126.753 68.232C126.521 68.024 126.157 67.92 125.661 67.92ZM138.333 70.704C138.333 71.368 138.249 71.972 138.081 72.516C137.921 73.052 137.673 73.516 137.337 73.908C137.009 74.3 136.585 74.6 136.065 74.808C135.553 75.016 134.949 75.12 134.253 75.12C133.557 75.12 132.949 75.016 132.429 74.808C131.917 74.592 131.493 74.292 131.157 73.908C130.829 73.516 130.581 73.048 130.413 72.504C130.253 71.96 130.173 71.356 130.173 70.692C130.173 69.804 130.317 69.032 130.605 68.376C130.901 67.72 131.349 67.212 131.949 66.852C132.557 66.484 133.329 66.3 134.265 66.3C135.193 66.3 135.957 66.484 136.557 66.852C137.157 67.212 137.601 67.724 137.889 68.388C138.185 69.044 138.333 69.816 138.333 70.704ZM132.081 70.704C132.081 71.304 132.157 71.82 132.309 72.252C132.461 72.684 132.697 73.016 133.017 73.248C133.337 73.48 133.749 73.596 134.253 73.596C134.773 73.596 135.189 73.48 135.501 73.248C135.821 73.016 136.053 72.684 136.197 72.252C136.349 71.82 136.425 71.304 136.425 70.704C136.425 69.8 136.257 69.092 135.921 68.58C135.585 68.068 135.033 67.812 134.265 67.812C133.753 67.812 133.337 67.928 133.017 68.16C132.697 68.392 132.461 68.724 132.309 69.156C132.157 69.588 132.081 70.104 132.081 70.704ZM145.003 66.312V67.368C145.939 67.392 146.683 67.556 147.235 67.86C147.795 68.156 148.195 68.54 148.435 69.012C148.683 69.484 148.807 70 148.807 70.56C148.807 70.92 148.743 71.288 148.615 71.664C148.495 72.04 148.287 72.388 147.991 72.708C147.703 73.02 147.315 73.276 146.827 73.476C146.339 73.676 145.731 73.784 145.003 73.8V75.12H143.371V73.8C142.635 73.784 142.019 73.676 141.523 73.476C141.035 73.276 140.647 73.016 140.359 72.696C140.071 72.376 139.867 72.032 139.747 71.664C139.627 71.288 139.567 70.92 139.567 70.56C139.567 70.144 139.635 69.748 139.771 69.372C139.907 68.996 140.123 68.66 140.419 68.364C140.715 68.068 141.107 67.832 141.595 67.656C142.083 67.48 142.675 67.384 143.371 67.368V66.312H145.003ZM143.371 68.784C142.851 68.808 142.435 68.9 142.123 69.06C141.819 69.212 141.599 69.416 141.463 69.672C141.335 69.928 141.271 70.22 141.271 70.548C141.271 70.908 141.343 71.224 141.487 71.496C141.639 71.76 141.867 71.972 142.171 72.132C142.483 72.284 142.883 72.372 143.371 72.396V68.784ZM145.003 72.396C145.491 72.372 145.887 72.284 146.191 72.132C146.503 71.972 146.731 71.76 146.875 71.496C147.027 71.224 147.103 70.908 147.103 70.548C147.103 70.22 147.035 69.928 146.899 69.672C146.771 69.416 146.551 69.212 146.239 69.06C145.935 68.9 145.523 68.808 145.003 68.784V72.396ZM150.432 66.432H152.064V70.572C152.064 70.772 152.06 70.996 152.052 71.244C152.044 71.492 152.036 71.736 152.028 71.976C152.02 72.208 152.012 72.412 152.004 72.588C151.996 72.756 151.988 72.872 151.98 72.936H152.016L155.976 66.432H158.148V75H156.528V70.884C156.528 70.668 156.532 70.432 156.54 70.176C156.548 69.912 156.556 69.66 156.564 69.42C156.58 69.18 156.592 68.972 156.6 68.796C156.616 68.612 156.628 68.492 156.636 68.436H156.588L152.616 75H150.432V66.432ZM167.09 75H165.278V67.944H163.178C163.13 68.312 163.078 68.712 163.022 69.144C162.974 69.576 162.918 70.016 162.854 70.464C162.798 70.904 162.738 71.324 162.674 71.724C162.61 72.116 162.546 72.464 162.482 72.768C162.378 73.264 162.238 73.688 162.062 74.04C161.894 74.392 161.658 74.66 161.354 74.844C161.058 75.028 160.67 75.12 160.19 75.12C160.03 75.12 159.878 75.108 159.734 75.084C159.59 75.06 159.454 75.028 159.326 74.988V73.5C159.43 73.532 159.53 73.56 159.626 73.584C159.73 73.608 159.842 73.62 159.962 73.62C160.122 73.62 160.254 73.568 160.358 73.464C160.462 73.36 160.554 73.184 160.634 72.936C160.714 72.68 160.794 72.328 160.874 71.88C160.914 71.688 160.962 71.416 161.018 71.064C161.074 70.704 161.138 70.284 161.21 69.804C161.29 69.316 161.37 68.788 161.45 68.22C161.53 67.644 161.606 67.048 161.678 66.432H167.09V75ZM169.252 75V66.432H171.064V69.72H171.784C172.592 69.72 173.252 69.832 173.764 70.056C174.284 70.28 174.668 70.588 174.916 70.98C175.164 71.372 175.288 71.82 175.288 72.324C175.288 72.884 175.164 73.364 174.916 73.764C174.668 74.164 174.284 74.472 173.764 74.688C173.244 74.896 172.572 75 171.748 75H169.252ZM171.676 73.512C172.228 73.512 172.66 73.424 172.972 73.248C173.292 73.072 173.452 72.764 173.452 72.324C173.452 72.02 173.372 71.788 173.212 71.628C173.06 71.468 172.84 71.36 172.552 71.304C172.272 71.24 171.932 71.208 171.532 71.208H171.064V73.512H171.676ZM121.064 89H119L115.892 84.656V89H114.08V80.432H115.892V84.584L118.964 80.432H120.896L117.776 84.548L121.064 89ZM126.367 86.492C126.127 87.036 125.871 87.508 125.599 87.908C125.335 88.3 124.995 88.6 124.579 88.808C124.163 89.016 123.619 89.12 122.947 89.12C122.739 89.12 122.511 89.104 122.263 89.072C122.015 89.04 121.787 88.996 121.579 88.94V87.38C121.771 87.46 121.983 87.516 122.215 87.548C122.447 87.58 122.663 87.596 122.863 87.596C123.127 87.596 123.339 87.552 123.499 87.464C123.667 87.376 123.799 87.256 123.895 87.104C123.999 86.944 124.083 86.772 124.146 86.588L121.183 80.432H123.103L124.699 84.14C124.739 84.22 124.787 84.324 124.843 84.452C124.899 84.58 124.955 84.712 125.011 84.848C125.067 84.984 125.111 85.104 125.143 85.208H125.203C125.235 85.112 125.275 84.996 125.323 84.86C125.379 84.716 125.435 84.572 125.491 84.428C125.555 84.276 125.611 84.144 125.659 84.032L127.147 80.432H129.019L126.367 86.492ZM132.836 80.432C133.94 80.432 134.744 80.672 135.248 81.152C135.76 81.624 136.016 82.276 136.016 83.108C136.016 83.484 135.96 83.844 135.848 84.188C135.736 84.524 135.548 84.828 135.284 85.1C135.028 85.364 134.688 85.572 134.264 85.724C133.84 85.876 133.316 85.952 132.692 85.952H131.912V89H130.1V80.432H132.836ZM132.74 81.92H131.912V84.464H132.512C132.856 84.464 133.152 84.42 133.4 84.332C133.648 84.244 133.84 84.104 133.976 83.912C134.112 83.72 134.18 83.472 134.18 83.168C134.18 82.744 134.064 82.432 133.832 82.232C133.6 82.024 133.236 81.92 132.74 81.92ZM144.619 89H142.555L139.447 84.656V89H137.635V80.432H139.447V84.584L142.519 80.432H144.451L141.331 84.548L144.619 89ZM145.697 80.432H147.329V84.572C147.329 84.772 147.325 84.996 147.317 85.244C147.309 85.492 147.301 85.736 147.293 85.976C147.285 86.208 147.277 86.412 147.269 86.588C147.261 86.756 147.253 86.872 147.245 86.936H147.281L151.241 80.432H153.413V89H151.793V84.884C151.793 84.668 151.797 84.432 151.805 84.176C151.813 83.912 151.821 83.66 151.829 83.42C151.845 83.18 151.857 82.972 151.865 82.796C151.881 82.612 151.893 82.492 151.901 82.436H151.853L147.881 89H145.697V80.432ZM162.596 89H160.784V85.304H157.388V89H155.576V80.432H157.388V83.792H160.784V80.432H162.596V89ZM172.528 84.704C172.528 85.368 172.444 85.972 172.276 86.516C172.116 87.052 171.868 87.516 171.532 87.908C171.204 88.3 170.78 88.6 170.26 88.808C169.748 89.016 169.144 89.12 168.448 89.12C167.752 89.12 167.144 89.016 166.624 88.808C166.112 88.592 165.688 88.292 165.352 87.908C165.024 87.516 164.776 87.048 164.608 86.504C164.448 85.96 164.368 85.356 164.368 84.692C164.368 83.804 164.512 83.032 164.8 82.376C165.096 81.72 165.544 81.212 166.144 80.852C166.752 80.484 167.524 80.3 168.46 80.3C169.388 80.3 170.152 80.484 170.752 80.852C171.352 81.212 171.796 81.724 172.084 82.388C172.38 83.044 172.528 83.816 172.528 84.704ZM166.276 84.704C166.276 85.304 166.352 85.82 166.504 86.252C166.656 86.684 166.892 87.016 167.212 87.248C167.532 87.48 167.944 87.596 168.448 87.596C168.968 87.596 169.384 87.48 169.696 87.248C170.016 87.016 170.248 86.684 170.392 86.252C170.544 85.82 170.62 85.304 170.62 84.704C170.62 83.8 170.452 83.092 170.116 82.58C169.78 82.068 169.228 81.812 168.46 81.812C167.948 81.812 167.532 81.928 167.212 82.16C166.892 82.392 166.656 82.724 166.504 83.156C166.352 83.588 166.276 84.104 166.276 84.704Z" fill="white"/>
</g>
<defs>
<clipPath id="clip0_403_2">
<rect width="188" height="119" fill="white"/>
</clipPath>
</defs>
</svg>
