<svg xmlns="http://www.w3.org/2000/svg"  viewBox="0 0 64 64" width="64px" height="64px" baseProfile="basic"><circle cx="32" cy="32" r="23" fill="#98c900"/><ellipse cx="32" cy="61" opacity=".3" rx="19" ry="3"/><path fill="#fff" d="M32,14c2.577,0,4.674-1.957,4.946-4.461C35.352,9.19,33.699,9,32,9 C19.297,9,9,19.297,9,32c0,1.699,0.19,3.352,0.539,4.946C12.044,36.674,14,34.577,14,32C14,22.075,22.075,14,32,14z" opacity=".3"/><path d="M54.461,27.054C51.956,27.326,50,29.423,50,32c0,9.925-8.075,18-18,18 c-2.577,0-4.674,1.957-4.946,4.461C28.648,54.81,30.301,55,32,55c12.703,0,23-10.297,23-23 C55,30.301,54.81,28.648,54.461,27.054z" opacity=".15"/><path fill="none" stroke="#fff" stroke-linecap="round" stroke-linejoin="round" stroke-miterlimit="10" stroke-width="3" d="M15.047,23.427c1.878-3.699,4.932-6.705,8.666-8.522"/><g><path fill="#edff9c" d="M43.123,27.252l-0.265,0.265c-0.357,0.357-0.463,0.88-0.32,1.364 c1.253,4.245-0.092,9.1-4.056,12.021c-3.927,2.893-9.446,2.786-13.272-0.24c-5.252-4.154-5.58-11.837-0.985-16.433 c2.957-2.957,7.192-3.868,10.943-2.745c0.46,0.138,0.958,0.036,1.298-0.303l0.294-0.294c0.713-0.713,0.4-1.92-0.562-2.221 c-5.371-1.682-11.558-0.067-15.343,4.868c-3.851,5.021-3.782,12.194,0.156,17.148c5.292,6.658,15.051,7.066,20.892,1.226 c3.813-3.813,4.953-9.293,3.437-14.112C45.039,26.842,43.83,26.545,43.123,27.252z"/></g><path fill="#edff9c" d="M33,22.641v-6.304c0-1.034,1.133-1.668,2.014-1.127l5.146,3.157c0.842,0.517,0.841,1.74-0.002,2.255	l-5.146,3.146C34.131,24.308,33,23.674,33,22.641z"/></svg>