<svg width="61" height="61" viewBox="0 0 61 61" fill="none" xmlns="http://www.w3.org/2000/svg">
<path fill-rule="evenodd" clip-rule="evenodd" d="M32.3098 9.94467C31.3958 8.07537 28.7318 8.07537 27.8178 9.94467L8.32781 49.8106C7.51584 51.4714 8.72504 53.4086 10.5738 53.4086H49.5538C51.4025 53.4086 52.6118 51.4714 51.7998 49.8106L32.3098 9.94467ZM23.3259 7.74862C26.0675 2.14073 34.06 2.14071 36.8018 7.74862L56.2918 47.6146C58.7275 52.5971 55.1 58.4086 49.5538 58.4086H10.5738C5.02764 58.4086 1.39996 52.5971 3.83589 47.6146L23.3259 7.74862Z" fill="white" fill-opacity="0.69"/>
<path d="M27.5637 22.1586C27.5637 20.7779 28.683 19.6586 30.0637 19.6586C31.4445 19.6586 32.5637 20.7779 32.5637 22.1586V35.9087C32.5637 37.2894 31.4445 38.4087 30.0637 38.4087C28.683 38.4087 27.5637 37.2894 27.5637 35.9087V22.1586Z" fill="white"/>
<path d="M33.8137 45.9086C33.8137 47.9796 32.135 49.6586 30.0637 49.6586C27.9927 49.6586 26.3137 47.9796 26.3137 45.9086C26.3137 43.8376 27.9927 42.1586 30.0637 42.1586C32.135 42.1586 33.8137 43.8376 33.8137 45.9086Z" fill="white"/>
</svg>
