<svg width="61" height="61" viewBox="0 0 61 61" fill="none" xmlns="http://www.w3.org/2000/svg">
<g clip-path="url(#clip0_325_544)">
<path d="M60.8632 56.9587C60.8632 57.8428 60.512 58.6906 59.8868 59.3157C59.2617 59.9409 58.4139 60.292 57.5298 60.292H4.19649C3.31244 60.292 2.46459 59.9409 1.83947 59.3157C1.21435 58.6906 0.863159 57.8428 0.863159 56.9587V25.292C0.863159 24.408 1.21435 23.5601 1.83947 22.935C2.46459 22.3099 3.31244 21.9587 4.19649 21.9587H57.5298C58.4139 21.9587 59.2617 22.3099 59.8868 22.935C60.512 23.5601 60.8632 24.408 60.8632 25.292V56.9587Z" fill="#FFCC4D"/>
<path d="M57.5298 21.9587H4.19649C3.31244 21.9587 2.46459 22.3099 1.83947 22.935C1.21435 23.5601 0.863159 24.408 0.863159 25.292H60.8632C60.8632 24.408 60.512 23.5601 59.8868 22.935C59.2617 22.3099 58.4139 21.9587 57.5298 21.9587Z" fill="#6D6E71"/>
<path d="M4.19647 40.2921H57.5298V46.9587H4.19647V40.2921ZM4.19647 30.2921H57.5298V36.9587H4.19647V30.2921ZM4.19647 50.2921H57.5298V56.9587H4.19647V50.2921Z" fill="#3B88C3"/>
<path d="M47.5298 28.6254H50.8632V58.6254H47.5298V28.6254Z" fill="#FFCC4D"/>
<path d="M37.5298 0.292053H10.8632C9.97912 0.292053 9.13128 0.643243 8.50616 1.26836C7.88104 1.89349 7.52985 2.74133 7.52985 3.62539V60.2921H40.8632V3.62539C40.8632 2.74133 40.512 1.89349 39.8869 1.26836C39.2617 0.643243 38.4139 0.292053 37.5298 0.292053Z" fill="#FFE8B6"/>
<path d="M37.5298 0.292053H10.8632C9.97912 0.292053 9.13128 0.643243 8.50616 1.26836C7.88104 1.89349 7.52985 2.74133 7.52985 3.62539H40.8632C40.8632 2.74133 40.512 1.89349 39.8869 1.26836C39.2617 0.643243 38.4139 0.292053 37.5298 0.292053Z" fill="#808285"/>
<path d="M10.8632 30.2921H37.5298V36.9587H10.8632V30.2921ZM10.8632 40.2921H37.5298V46.9587H10.8632V40.2921ZM10.8632 50.2921H37.5298V56.9587H10.8632V50.2921Z" fill="#55ACEE"/>
<path d="M17.5298 11.9587H20.8632V60.292H17.5298V11.9587ZM27.5298 11.9587H30.8632V60.292H27.5298V11.9587Z" fill="#FFE8B6"/>
<path d="M20.8632 50.2921H27.5298V60.2921H20.8632V50.2921Z" fill="#226699"/>
<path d="M24.1965 25.2921C29.7193 25.2921 34.1965 20.8149 34.1965 15.2921C34.1965 9.76921 29.7193 5.29205 24.1965 5.29205C18.6736 5.29205 14.1965 9.76921 14.1965 15.2921C14.1965 20.8149 18.6736 25.2921 24.1965 25.2921Z" fill="#A7A9AC"/>
<path d="M24.1965 21.9587C27.8784 21.9587 30.8632 18.974 30.8632 15.2921C30.8632 11.6102 27.8784 8.6254 24.1965 8.6254C20.5146 8.6254 17.5298 11.6102 17.5298 15.2921C17.5298 18.974 20.5146 21.9587 24.1965 21.9587Z" fill="#E6E7E8"/>
<path d="M29.1965 16.9587H24.1965C23.7545 16.9587 23.3306 16.7831 23.018 16.4706C22.7054 16.158 22.5298 15.7341 22.5298 15.2921V6.95872C22.5298 6.51669 22.7054 6.09277 23.018 5.78021C23.3306 5.46765 23.7545 5.29205 24.1965 5.29205C24.6385 5.29205 25.0625 5.46765 25.375 5.78021C25.6876 6.09277 25.8632 6.51669 25.8632 6.95872V13.6254H29.1965C29.6385 13.6254 30.0625 13.801 30.375 14.1135C30.6876 14.4261 30.8632 14.85 30.8632 15.2921C30.8632 15.7341 30.6876 16.158 30.375 16.4706C30.0625 16.7831 29.6385 16.9587 29.1965 16.9587Z" fill="#A0041E"/>
</g>
<defs>
<clipPath id="clip0_325_544">
<rect width="60" height="60" fill="white" transform="translate(0.863159 0.292053)"/>
</clipPath>
</defs>
</svg>
