<svg width="61" height="61" viewBox="0 0 61 61" fill="none" xmlns="http://www.w3.org/2000/svg">
<path d="M43.7513 16.6587L40.9763 12.9088C40.7978 12.6707 40.5655 12.4786 40.2981 12.3482C40.0307 12.2178 39.7361 12.1528 39.4388 12.1588H21.0638C20.793 12.1587 20.5253 12.2174 20.2793 12.3307C20.0333 12.444 19.8148 12.6092 19.6388 12.815L16.4138 16.565C16.1368 16.9099 15.9907 17.3416 16.0013 17.7838V31.4525C16.0062 34.718 17.3057 37.8485 19.6148 40.1576C21.924 42.4669 25.0543 43.7662 28.32 43.7713H31.8075C35.0732 43.7662 38.2035 42.4669 40.5128 40.1576C42.8218 37.8485 44.1214 34.718 44.1263 31.4525V17.7838C44.1263 17.378 43.9946 16.9833 43.7513 16.6587Z" fill="#FFCC80"/>
<path d="M55.9013 54.1212L48.4013 44.7462C48.1838 44.4688 47.8926 44.2583 47.5609 44.139C47.2292 44.0196 46.8707 43.9962 46.5263 44.0712L30.0638 47.7837L13.6013 44.0337C13.2569 43.9587 12.8983 43.9821 12.5667 44.1015C12.235 44.2208 11.9438 44.4313 11.7263 44.7087L4.22627 54.0837C4.00863 54.3582 3.87221 54.688 3.83244 55.036C3.79267 55.3838 3.85115 55.7361 4.00127 56.0524C4.14782 56.3785 4.38453 56.656 4.68352 56.8519C4.98251 57.0478 5.3313 57.1543 5.68877 57.1587H54.4388C54.7922 57.1577 55.1381 57.0568 55.4366 56.8677C55.7353 56.6787 55.9744 56.409 56.1263 56.0899C56.2765 55.7736 56.3348 55.4213 56.295 55.0735C56.2553 54.7255 56.119 54.3957 55.9013 54.1212Z" fill="#01579B"/>
<path d="M54.9825 12.1587L30.6075 4.65867C30.251 4.56491 29.8764 4.56491 29.52 4.65867L5.14497 12.1587C4.74638 12.279 4.39921 12.5287 4.15816 12.8681C3.91713 13.2076 3.79595 13.6177 3.81372 14.0337C3.79816 14.4545 3.92472 14.8683 4.17303 15.2085C4.42132 15.5486 4.77691 15.7953 5.18247 15.9087L29.5575 22.6586C29.8875 22.7587 30.24 22.7587 30.57 22.6586L54.945 15.9087C55.3505 15.7953 55.706 15.5486 55.9545 15.2085C56.2027 14.8683 56.3293 14.4545 56.3137 14.0337C56.3315 13.6177 56.2102 13.2076 55.9693 12.8681C55.7282 12.5287 55.3811 12.279 54.9825 12.1587Z" fill="#01579B"/>
<path d="M21.1012 12.1586C20.8305 12.1586 20.5627 12.2173 20.3167 12.3305C20.0707 12.4438 19.8523 12.6091 19.6762 12.8149L16.4512 16.5649C16.1608 16.9045 16.0012 17.3367 16.0012 17.7836V31.4524C16.0062 34.7181 17.3056 37.8484 19.6147 40.1576C21.924 42.4667 25.0543 43.7663 28.32 43.7711H30.0637V12.1586H21.1012Z" fill="#FFE0B2"/>
<path d="M13.6013 44.0337C13.2569 43.9587 12.8983 43.9821 12.5667 44.1015C12.235 44.2208 11.9438 44.4313 11.7263 44.7087L4.22627 54.0837C4.00863 54.3582 3.87221 54.688 3.83244 55.036C3.79267 55.3838 3.85115 55.7361 4.00127 56.0524C4.14782 56.3785 4.38453 56.656 4.68352 56.8519C4.98251 57.0478 5.3313 57.1543 5.68877 57.1587H30.0638V47.7837L13.6013 44.0337Z" fill="#0277BD"/>
<path d="M29.52 4.65867L5.14497 12.1587C4.74638 12.279 4.39921 12.5286 4.15816 12.8681C3.91713 13.2076 3.79595 13.6177 3.81372 14.0337C3.79816 14.4545 3.92472 14.8683 4.17303 15.2085C4.42132 15.5486 4.77691 15.7953 5.18247 15.9087L29.5575 22.6586C29.7251 22.686 29.8961 22.686 30.0637 22.6586V4.65867C29.8835 4.62993 29.7002 4.62993 29.52 4.65867Z" fill="#0277BD"/>
</svg>
